<?xml version="1.0" standalone="no"?>
<!DOCTYPE svg PUBLIC "-//W3C//DTD SVG 20010904//EN"
 "http://www.w3.org/TR/2001/REC-SVG-20010904/DTD/svg10.dtd">
<svg version="1.0" xmlns="http://www.w3.org/2000/svg"
 width="609.000000pt" height="915.000000pt" viewBox="0 0 609.000000 915.000000"
 preserveAspectRatio="xMidYMid meet">

<g transform="translate(0.000000,915.000000) scale(0.100000,-0.100000)"
fill="#000000" stroke="none">
<path d="M0 4822 c0 -4110 1 -4328 18 -4340 9 -7 32 -21 50 -32 31 -19 43 -52
22 -65 -13 -8 -13 -55 0 -55 5 0 13 -18 16 -40 4 -22 10 -40 15 -40 9 0 189
-177 226 -223 l23 -27 2860 0 2860 0 0 2420 c0 1331 -3 2420 -6 2420 -14 0
-148 -63 -212 -101 l-71 -40 16 -34 c15 -31 15 -37 -2 -81 -36 -94 -171 -189
-268 -189 -41 0 -53 4 -73 28 -43 50 -17 84 144 197 l84 58 -55 12 c-31 6 -67
20 -80 30 -22 18 -38 19 -229 13 l-204 -6 -12 -26 c-6 -14 -27 -64 -48 -111
-36 -85 -67 -130 -89 -130 -7 0 -20 9 -30 20 -16 18 -17 25 -6 62 7 23 31 80
52 126 21 47 39 86 39 89 0 2 -23 -12 -50 -31 -78 -54 -158 -88 -219 -93 -52
-5 -59 -3 -89 25 -29 28 -38 55 -33 100 3 18 -10 15 -58 -18 -54 -37 -143 -64
-178 -55 -14 3 -33 15 -42 27 -17 20 -18 20 -56 -33 -62 -85 -173 -216 -198
-232 -14 -9 -35 -13 -52 -10 -20 4 -32 1 -41 -11 -18 -25 -49 -6 -64 39 -15
45 -6 99 32 189 16 39 32 78 35 86 4 8 -32 -25 -78 -75 -216 -230 -225 -237
-263 -240 -20 -2 -36 0 -35 3 0 4 41 39 90 77 50 39 139 120 198 180 106 108
110 114 180 260 119 248 269 505 303 517 21 8 56 -9 63 -32 7 -23 3 -30 -124
-240 -108 -178 -177 -314 -245 -487 -52 -130 -80 -243 -61 -243 20 0 86 63
189 181 97 111 116 138 131 190 25 83 52 106 94 80 11 -7 9 -21 -14 -79 -15
-39 -25 -78 -22 -86 11 -28 82 -20 149 16 52 28 63 39 84 85 27 62 117 157
170 179 51 21 110 20 135 -2 17 -15 20 -27 16 -58 -3 -21 -12 -46 -21 -54 -14
-14 -18 -14 -38 5 -21 20 -26 20 -55 8 -63 -27 -132 -124 -133 -187 0 -18 8
-33 23 -43 21 -13 30 -13 82 0 83 22 203 92 230 135 12 19 43 73 68 120 25 47
86 151 134 230 l89 145 40 0 c64 0 58 -31 -27 -155 -91 -132 -201 -312 -194
-318 3 -3 33 21 67 54 105 98 188 171 213 184 20 11 27 11 40 0 32 -27 18 -50
-54 -83 -47 -22 -97 -58 -161 -117 -50 -47 -97 -88 -103 -92 -23 -14 2 -18
139 -23 76 -3 153 -8 170 -10 30 -3 32 -1 38 34 8 54 77 114 209 185 82 43
104 45 117 10 15 -39 14 -41 -54 -73 -108 -52 -200 -151 -153 -165 6 -3 37
-12 68 -21 l56 -17 79 39 c43 22 114 55 157 73 l77 34 0 2143 0 2143 -3045 0
-3045 0 0 -4328z m3936 999 c79 -36 124 -128 124 -256 0 -109 -38 -228 -114
-360 -48 -85 -45 -80 -52 -72 -4 3 5 25 19 49 13 24 37 79 53 123 23 66 28
100 31 195 3 102 1 121 -19 169 -29 69 -63 95 -125 95 -145 -1 -427 -211 -610
-454 -198 -263 -305 -536 -307 -787 l-1 -113 -30 0 c-34 0 -95 -33 -95 -52 0
-9 -3 -9 -11 -1 -17 17 -24 250 -10 340 47 298 208 602 445 839 150 151 323
259 458 289 93 20 195 18 244 -4z m-2402 -57 c4 -9 4 -25 1 -35 -6 -18 8 -19
382 -19 383 0 532 -7 707 -35 84 -13 125 -32 113 -52 -3 -4 -40 -5 -84 -1 -43
4 -317 10 -610 14 l-531 7 -21 -42 c-12 -22 -27 -41 -34 -42 -6 0 -56 -91
-110 -202 l-97 -202 16 -46 c31 -92 -16 -197 -200 -445 -44 -60 -91 -120 -104
-134 -27 -29 -59 -96 -132 -275 -62 -150 -77 -172 -109 -156 -12 7 -21 21 -21
36 0 20 59 191 98 285 6 14 36 90 67 170 71 182 187 454 226 531 16 32 29 65
29 73 0 21 -138 72 -274 101 -63 14 -199 39 -303 55 -405 67 -479 95 -459 174
23 90 402 157 998 176 l280 9 27 25 c47 45 132 63 145 30z m1044 -221 c31 -9
71 -32 97 -55 40 -35 54 -41 117 -49 93 -12 118 -28 118 -77 -1 -55 -25 -231
-34 -239 -4 -4 -4 51 0 123 7 130 7 131 -17 147 -15 11 -44 17 -80 17 -51 0
-63 4 -105 36 -79 61 -129 79 -214 78 -59 0 -89 -6 -139 -28 -57 -25 -69 -26
-107 -17 -108 27 -127 11 -149 -124 -15 -89 -38 -140 -74 -163 -26 -15 -26 -8
-1 29 12 15 25 52 31 81 5 29 14 79 20 110 5 31 19 68 31 83 19 25 22 25 106
19 79 -6 93 -4 147 19 33 14 71 27 85 30 36 7 106 -1 168 -20z m229 -52 c39
-10 30 -26 -17 -29 -47 -3 -88 16 -76 36 6 11 34 9 93 -7z m-982 -54 c26 -20
16 -47 -67 -172 -104 -157 -138 -214 -207 -352 l-60 -122 83 85 c118 120 150
115 163 -22 5 -55 10 -67 29 -76 31 -14 131 17 139 43 18 56 113 129 168 129
40 0 57 -15 57 -51 0 -45 -40 -91 -110 -127 -72 -36 -84 -56 -46 -73 20 -9 36
-9 68 0 60 18 162 74 231 128 32 25 61 43 64 39 16 -15 -163 -155 -252 -198
-67 -31 -112 -35 -154 -13 -33 17 -41 33 -41 85 l0 39 -42 -19 c-78 -33 -104
-34 -132 -7 -19 19 -27 40 -32 86 -5 46 -10 61 -22 61 -23 0 -120 -107 -167
-185 -94 -154 -99 -160 -128 -163 -22 -3 -29 2 -38 25 -20 54 39 193 230 533
63 113 126 225 139 250 48 87 83 108 127 77z m713 -36 c47 -24 77 -56 97 -103
51 -123 -43 -261 -179 -261 -174 0 -261 201 -141 327 55 57 152 73 223 37z
m288 -47 c20 -19 24 -31 19 -52 -4 -15 -11 -33 -17 -39 -14 -17 -69 -16 -93 1
-27 19 -24 74 4 98 32 25 57 23 87 -8z m3079 -236 c10 -24 22 -51 26 -60 6
-13 2 -22 -17 -35 -25 -16 -26 -15 -57 15 -35 36 -18 45 19 11 24 -22 44 -19
44 8 0 11 -6 14 -24 9 -20 -5 -25 -2 -28 16 -2 13 -8 23 -15 23 -21 0 -23 11
-1 12 12 1 22 -5 25 -18 3 -10 9 -19 14 -19 4 0 3 14 -3 30 -8 24 -15 29 -34
26 -13 -3 -24 -1 -24 4 0 5 10 11 23 13 12 2 25 5 28 6 3 0 14 -18 24 -41z
m-1400 1 c-9 -13 9 -11 24 4 11 10 12 8 7 -10 -6 -18 -4 -21 16 -16 21 4 22 3
6 -10 -22 -17 -23 -28 -4 -21 8 3 17 1 21 -5 3 -6 -1 -11 -9 -11 -9 0 -16 -4
-16 -10 0 -5 5 -10 10 -10 6 0 10 -5 10 -11 0 -6 -9 -8 -20 -4 -15 5 -18 3
-14 -9 3 -9 1 -16 -5 -16 -6 0 -11 5 -11 10 0 6 -5 10 -11 10 -5 0 -8 -4 -5
-8 2 -4 1 -14 -5 -22 -6 -11 -9 -8 -9 14 l0 28 -20 -23 c-21 -26 -26 -19 -10
12 12 21 1 26 -18 7 -7 -7 -12 -8 -12 -2 0 6 5 15 12 22 9 9 8 12 -5 12 -23 0
-22 20 1 21 10 0 12 3 5 6 -23 9 -14 25 9 17 20 -6 21 -5 9 10 -8 9 -11 19 -7
23 3 4 13 -2 21 -13 14 -18 14 -18 15 4 0 13 4 20 10 17 6 -4 8 -11 5 -16z
m678 -516 c-13 -2 -35 -2 -50 0 -16 2 -5 4 22 4 28 0 40 -2 28 -4z m-268 -11
c-6 -5 -136 -17 -290 -26 -154 -9 -301 -19 -327 -22 -32 -4 -48 -2 -48 5 0 6
19 11 43 12 23 0 164 9 312 18 149 10 281 19 295 20 14 0 20 -3 15 -7z m-68
-38 c-3 -3 -12 -4 -19 -1 -8 3 -5 6 6 6 11 1 17 -2 13 -5z m-87 -10 c-32 -7
-533 -35 -538 -30 -3 4 1 6 9 7 347 23 572 33 529 23z m-850 -14 c0 -5 -15
-10 -32 -10 -25 0 -29 3 -18 10 20 13 50 13 50 0z m-219 -14 c-6 -8 -34 -14
-68 -15 -32 -1 -193 -10 -358 -20 -165 -11 -302 -17 -304 -15 -13 13 42 19
366 39 197 12 362 23 367 24 5 0 3 -5 -3 -13z m218 -20 c-11 -10 -89 -15 -89
-6 0 5 21 10 47 10 25 0 44 -2 42 -4z m-264 -15 c-11 -10 -675 -54 -683 -46
-3 3 -3 7 -1 9 2 2 150 12 329 23 179 11 334 21 345 22 12 0 15 -3 10 -8z
m1501 -36 c10 -19 21 -35 25 -35 3 0 14 16 25 35 13 24 26 35 41 35 23 0 23
-1 -12 -70 -19 -38 -35 -79 -35 -90 0 -13 -7 -20 -20 -20 -16 0 -20 7 -20 30
0 17 -15 53 -35 84 -36 56 -35 57 6 65 3 0 14 -15 25 -34z m-2406 16 c0 -13
-62 -18 -495 -41 -799 -43 -937 -50 -1135 -54 l-205 -4 145 10 c170 12 1573
95 1643 97 26 0 47 -3 47 -8z m2018 -39 c3 -29 6 -32 38 -32 32 0 34 2 34 35
0 31 3 35 25 35 25 0 25 -1 25 -84 0 -67 -3 -85 -16 -90 -23 -9 -34 2 -34 35
0 26 -3 29 -34 29 -32 0 -35 -3 -38 -32 -2 -25 -8 -34 -25 -36 -22 -3 -23 -1
-23 81 0 46 3 87 7 91 16 16 38 -1 41 -32z m-269 4 c37 -38 -1 -106 -59 -106
-24 0 -29 -5 -32 -27 -2 -20 -9 -28 -23 -28 -18 0 -20 8 -23 87 l-3 87 33 4
c46 6 90 -1 107 -17z m-1774 -7 c-42 -11 -1094 -63 -1104 -54 -2 3 4 5 15 6
10 0 230 13 489 28 497 30 652 35 600 20z m1395 -65 c17 -41 34 -82 37 -90 4
-10 -2 -14 -21 -14 -16 0 -26 6 -26 15 0 21 -76 21 -88 -1 -5 -9 -18 -14 -29
-12 -21 3 -20 5 10 78 40 94 44 100 67 100 13 0 27 -20 50 -76z m-370 36 c26
-26 25 -48 -2 -77 l-21 -23 21 -23 c12 -13 19 -27 15 -30 -14 -15 -40 -6 -68
23 -36 37 -45 38 -42 3 2 -22 -3 -29 -20 -31 -22 -3 -23 -1 -23 81 0 46 3 87
7 90 3 4 30 7 60 7 40 0 58 -5 73 -20z m-373 -16 l28 -25 -57 6 c-53 6 -58 5
-73 -19 -31 -47 9 -97 59 -74 27 12 37 34 12 25 -17 -7 -53 17 -39 26 13 8 91
12 98 5 9 -9 -19 -71 -40 -88 -10 -8 -35 -15 -57 -15 -31 0 -45 7 -64 28 -76
88 47 210 133 131z m-393 -19 c59 -55 17 -155 -66 -155 -51 0 -74 13 -86 48
-14 41 -4 79 30 107 39 33 86 33 122 0z m616 -6 c0 -37 -4 -41 -100 -106 -161
-109 -278 -149 -411 -140 -50 3 -90 12 -119 27 l-43 22 41 18 c22 10 48 30 57
44 15 23 19 24 38 12 30 -19 94 -27 142 -18 27 5 52 3 77 -6 33 -13 40 -13 74
4 21 11 45 33 53 49 10 21 42 46 96 78 44 25 83 47 88 47 4 0 7 -14 7 -31z
m-970 -9 c0 -16 -7 -20 -30 -20 l-30 0 0 -70 c0 -66 -1 -70 -22 -70 -22 0 -23
4 -23 67 0 67 -1 68 -27 71 -20 2 -28 9 -28 23 0 17 8 19 80 19 73 0 80 -2 80
-20z m-376 -20 c14 -14 21 -33 21 -61 0 -34 -6 -46 -33 -70 -41 -37 -80 -38
-121 -3 -24 20 -31 34 -31 63 0 41 21 78 54 92 31 13 87 3 110 -21z m-374 -80
c0 -89 0 -90 -25 -90 -22 0 -25 4 -25 36 0 34 -1 35 -32 32 -29 -3 -34 -7 -38
-38 -4 -27 -10 -35 -25 -35 -18 0 -20 8 -23 88 l-3 87 26 0 c21 0 25 -5 25
-30 0 -28 3 -30 35 -30 33 0 35 2 35 35 0 31 3 35 25 35 25 0 25 -1 25 -90z
m-391 46 c27 -49 1 -86 -71 -101 -22 -4 -28 -11 -28 -30 0 -18 -5 -25 -20 -25
-19 0 -20 7 -20 90 l0 90 63 0 c57 0 65 -3 76 -24z"/>
<path d="M1170 5623 c-30 -1 -149 -7 -265 -13 -116 -6 -295 -18 -400 -26 -300
-24 -375 -39 -375 -75 0 -43 93 -71 435 -129 337 -57 477 -93 539 -135 11 -8
24 -15 28 -15 7 0 198 384 198 397 0 3 -56 2 -160 -4z"/>
<path d="M1109 4875 c-66 -136 -119 -249 -117 -251 11 -10 192 244 229 321 30
62 40 157 19 170 -6 4 -60 -95 -131 -240z"/>
<path d="M2385 5396 c-49 -21 -92 -74 -105 -125 -9 -39 -8 -56 6 -97 20 -61
38 -82 89 -105 88 -41 188 -10 234 71 23 41 28 111 10 157 -33 87 -150 136
-234 99z m58 -76 l26 -45 -77 3 c-42 2 -79 6 -81 8 -8 8 32 56 62 74 35 22 34
22 70 -40z m99 32 c20 -19 20 -19 -10 -67 l-30 -48 -37 73 -37 73 47 -6 c28
-3 55 -13 67 -25z m68 -119 c0 -43 -7 -48 -66 -45 -30 2 -54 7 -52 11 2 3 21
35 43 70 l40 64 17 -39 c10 -22 18 -49 18 -61z m-200 24 c0 -10 -69 -127 -75
-127 -13 0 -35 65 -35 100 l0 41 55 -2 c30 -1 55 -6 55 -12z m38 -119 c17 -31
27 -60 22 -63 -20 -12 -120 26 -120 45 0 18 53 91 60 83 4 -4 21 -34 38 -65z
m145 36 c15 -16 -66 -94 -97 -94 -3 0 -17 23 -31 50 l-25 50 73 0 c41 0 77 -3
80 -6z"/>
<path d="M2757 5334 c-14 -15 -6 -43 14 -49 25 -8 42 6 37 31 -3 19 -38 31
-51 18z"/>
<path d="M4400 4385 c0 -23 4 -26 28 -23 19 2 27 9 27 23 0 14 -8 21 -27 23
-24 3 -28 0 -28 -23z"/>
<path d="M4042 4345 c-11 -23 -10 -25 14 -25 22 0 24 2 13 23 -6 12 -13 23
-14 25 -1 1 -7 -9 -13 -23z"/>
<path d="M3649 4368 c-9 -32 -5 -38 26 -38 30 0 52 20 38 34 -6 6 -62 9 -64 4z"/>
<path d="M2876 4324 c-22 -22 -20 -60 5 -78 49 -34 106 36 63 78 -8 9 -24 16
-34 16 -10 0 -26 -7 -34 -16z"/>
<path d="M2139 4289 c-26 -26 -21 -59 13 -78 24 -14 28 -14 47 3 27 24 28 72
2 86 -28 14 -38 13 -62 -11z"/>
<path d="M1382 4248 c4 -28 39 -36 57 -14 18 21 5 36 -30 36 -26 0 -30 -3 -27
-22z"/>
<path d="M5694 4632 c-69 -46 -162 -123 -168 -138 -9 -24 20 -27 61 -8 47 23
163 134 163 157 0 23 -8 22 -56 -11z"/>
<path d="M0 45 c0 -33 4 -45 14 -45 14 0 15 21 7 83 -1 4 -5 7 -11 7 -5 0 -10
-20 -10 -45z"/>
</g>
</svg>
